<?xml version="1.0" encoding="UTF-8" standalone="no"?>
<svg width="23px" height="29px" viewBox="0 0 23 29" version="1.1" xmlns="http://www.w3.org/2000/svg" xmlns:xlink="http://www.w3.org/1999/xlink" xmlns:sketch="http://www.bohemiancoding.com/sketch/ns">
    <!-- Generator: Sketch Beta 3.3.3 (12072) - http://www.bohemiancoding.com/sketch -->
    <title>Beans</title>
    <desc>Created with Sketch Beta.</desc>
    <defs></defs>
    <g id="Page-1" stroke="none" stroke-width="1" fill="none" fill-rule="evenodd" sketch:type="MSPage">
        <g id="A" sketch:type="MSArtboardGroup" transform="translate(-86.000000, -1138.000000)" stroke="#808080">
            <path d="M107.04601,1143.161 C101.781932,1145.45159 100.164476,1149.43942 98.7814656,1152.62521 C97.5557124,1155.44944 94.8848583,1159.72816 90.7825549,1162.25288 C89.5924076,1162.98508 91.2272726,1163.64799 92.5953931,1163.86906 C96.4677529,1164.49379 101.139268,1162.87122 104.755721,1159.25476 C109.110407,1154.90008 110.573686,1149.01574 108.703513,1144.83911 C108.373926,1144.10247 107.793167,1142.83581 107.04601,1143.161 Z M103.020319,1140.25121 C99.0368283,1139.3377 94.0558121,1140.93371 90.2452418,1144.74428 C85.750263,1149.23926 84.3356258,1155.364 86.4876097,1159.55774 C86.8446429,1160.25301 87.6956127,1161.93878 88.420765,1161.62747 C93.7690219,1159.33105 95.1183877,1154.86917 96.5097072,1151.66404 C97.7618711,1148.77857 101.27239,1144.87775 105.586689,1142.32502 C106.773421,1141.62294 104.352524,1140.55694 103.020319,1140.25121 Z" id="Beans" sketch:type="MSShapeGroup" transform="translate(97.500237, 1152.000000) rotate(-45.000000) translate(-97.500237, -1152.000000) "></path>
        </g>
    </g>
</svg>