<?xml version="1.0" encoding="UTF-8"?>
<svg width="22px" height="29px" viewBox="0 0 22 29" version="1.1" xmlns="http://www.w3.org/2000/svg" xmlns:xlink="http://www.w3.org/1999/xlink">
    <!-- Generator: Sketch 42 (36781) - http://www.bohemiancoding.com/sketch -->
    <title>Beans</title>
    <desc>Created with Sketch.</desc>
    <defs>
        <path d="M117,101 C117.468183,99.9869898 118.27363,99.9212523 119,99.9869898 C123.794128,101.212155 128,108.503142 128,115 C128,121.732223 125.290535,125.513783 122,128 C120.674821,128.947268 118.930599,129.704301 119,128 C120.457464,123.000755 119.218797,117.543594 118,114 C116.759197,110.403809 114.688981,107.406395 117,101 Z M116,102 C114.806076,107.079936 114.879389,112.130705 116,115 C117.420457,118.132676 119.71582,125.081808 118,128 C118,128 117.415257,129 115.999862,129 C109.97902,129 106.020507,121.328821 106,115 C105.979701,108.813114 108.187664,102.483161 115,100 C116.711633,99.5744456 116.234531,100.990753 116,102 Z" id="path-1"></path>
        <mask id="mask-2" maskContentUnits="userSpaceOnUse" maskUnits="objectBoundingBox" x="0" y="0" width="22.0001385" height="29.0914809" fill="white">
            <use xlink:href="#path-1"></use>
        </mask>
    </defs>
    <g id="Page-1" stroke="none" stroke-width="1" fill="none" fill-rule="evenodd">
        <g id="iPhone-7" transform="translate(-106.000000, -100.000000)" stroke="#9B9B9B" stroke-width="2">
            <use id="Beans" mask="url(#mask-2)" xlink:href="#path-1"></use>
        </g>
    </g>
</svg>