<?xml version="1.0" encoding="UTF-8"?>
<svg width="30px" height="30px" viewBox="0 0 30 30" version="1.1" xmlns="http://www.w3.org/2000/svg" xmlns:xlink="http://www.w3.org/1999/xlink">
    <!-- Generator: Sketch 42 (36781) - http://www.bohemiancoding.com/sketch -->
    <title>Carafe</title>
    <desc>Created with Sketch.</desc>
    <defs>
        <path d="M1.98532203,0.914342996 C1.7608875,0.409365303 2.02826208,0.0718903542 2.55770044,0.156600491 L20.3370364,3.00129425 C20.8775868,3.08778231 21.3157895,3.61070809 21.3157895,4.15398246 L21.3157895,6.10917543 C21.3157895,6.65929949 20.8723427,7.10526316 20.3160378,7.10526316 L5.73659373,7.10526316 C5.18444616,7.10526316 4.55801198,6.70289538 4.33046744,6.19092016 L1.98532203,0.914342996 Z" id="path-1"></path>
        <mask id="mask-2" maskContentUnits="userSpaceOnUse" maskUnits="objectBoundingBox" x="0" y="0" width="19.7368421" height="7.10526316" fill="white">
            <use xlink:href="#path-1"></use>
        </mask>
        <path d="M23.1141743,7.10526316 C22.5569681,7.10526316 22.1052632,6.65244981 22.1052632,6.10917543 L22.1052632,4.15398246 C22.1052632,3.6038584 22.5443549,3.26766767 23.0698947,3.39905262 L24.2985264,3.70621054 C24.8312776,3.83939836 25.4101164,4.36375088 25.5962434,4.89111078 L29.6669145,16.4246787 C29.8508725,16.9458932 29.5433446,17.3684211 29.0092993,17.3684211 L28.6222797,17.3684211 C28.0751308,17.3684211 27.4719485,16.9533818 27.2743143,16.439533 L24.0414752,8.03415126 C23.8441634,7.52114052 23.235971,7.10526316 22.6752994,7.10526316 L23.1141743,7.10526316 Z" id="path-3"></path>
        <mask id="mask-4" maskContentUnits="userSpaceOnUse" maskUnits="objectBoundingBox" x="0" y="0" width="7.89473684" height="14.2105263" fill="white">
            <use xlink:href="#path-3"></use>
        </mask>
    </defs>
    <g id="Page-1" stroke="none" stroke-width="1" fill="none" fill-rule="evenodd">
        <g id="iPhone-7" transform="translate(-104.000000, -249.000000)">
            <g id="Carafe" transform="translate(104.000000, 249.000000)">
                <path d="M2.07366963,20.2794362 C0.218749967,25.2877193 2.95185588,29.2105263 8.29225323,29.2105263 L17.7603783,29.2105263 C23.0956963,29.2105263 25.8318722,25.2822939 23.9789619,20.2794362 L19.9768316,9.47368421 L6.0758,9.47368421 L2.07366963,20.2794362 Z M5.52631579,8.68421053 L20.5263158,8.68421053 L24.7192899,20.0052407 C26.763717,25.5251938 23.6439796,30 17.7603783,30 L8.29225323,30 C2.4045254,30 -0.713425506,25.531512 1.33334166,20.0052407 L5.52631579,8.68421053 Z" id="Rectangle-6" fill="#9B9B9B" fill-rule="nonzero"></path>
                <path d="M13.4210526,18.9473684 C18.4518315,16.4717749 22.8947368,19.7368421 22.8947368,19.7368421 C25.0405325,24.6766322 22.3123339,28.4210526 17.3684211,28.4210526 L8.68421053,28.4210526 C3.738511,28.4210526 1.01187465,24.6819192 3.15789474,19.7368421 C3.15789474,19.7368421 7.60080009,22.0059379 13.4210526,18.9473684 Z" id="Rectangle-6" fill="#9B9B9B" fill-rule="nonzero"></path>
                <use id="Rectangle-5" stroke="#979797" mask="url(#mask-2)" stroke-width="2" xlink:href="#path-1"></use>
                <use id="Rectangle-7" stroke="#979797" mask="url(#mask-4)" stroke-width="2" xlink:href="#path-3"></use>
            </g>
        </g>
    </g>
</svg>