<?xml version="1.0" encoding="UTF-8" standalone="no"?>
<svg width="21px" height="29px" viewBox="0 0 21 29" version="1.1" xmlns="http://www.w3.org/2000/svg" xmlns:xlink="http://www.w3.org/1999/xlink" xmlns:sketch="http://www.bohemiancoding.com/sketch/ns">
    <!-- Generator: Sketch Beta 3.3.3 (12072) - http://www.bohemiancoding.com/sketch -->
    <title>Chemex</title>
    <desc>Created with Sketch Beta.</desc>
    <defs></defs>
    <g id="Page-1" stroke="none" stroke-width="1" fill="none" fill-rule="evenodd" sketch:type="MSPage">
        <g id="A" sketch:type="MSArtboardGroup" transform="translate(-118.000000, -1076.000000)" fill="#808080">
            <g id="Chemex" sketch:type="MSLayerGroup" transform="translate(118.500000, 1076.000000)">
                <path d="M20.069015,21.591805 L16.283645,13.820675 C16.300465,13.79994 16.31772,13.77964 16.332945,13.75731 C16.51637,13.48877 16.55523,13.14744 16.43691,12.84439 L15.97233,11.654955 C15.817615,11.25925 15.74613,10.842375 15.753525,10.426515 L15.927235,10.426515 L15.927235,9.991515 L15.79195,9.991515 C15.827765,9.760675 15.885765,9.532445 15.97233,9.310885 L16.43691,8.121595 C16.55523,7.8184 16.51637,7.477215 16.332945,7.20853 C16.28785,7.1427 16.23536,7.083395 16.17736,7.03134 L18.944685,1.42303 C19.087075,1.134625 19.070545,0.79953 18.900895,0.526495 C18.7311,0.25346 18.437765,0.09048 18.1163,0.09048 L2.29767,0.09048 C1.97606,0.09048 1.68287,0.25346 1.513075,0.526495 C1.343425,0.79953 1.326895,1.13477 1.469285,1.42303 L4.188325,6.933465 C4.076675,7.00408 3.97793,7.096155 3.901225,7.208675 C3.7178,7.477215 3.678795,7.818545 3.797115,8.121595 L4.26184,9.310885 C4.26242,9.31248 4.262855,9.31422 4.263435,9.315815 C4.07131,9.165885 3.83032,9.07555 3.568305,9.07555 C2.943355,9.07555 2.43484,9.584065 2.43484,10.209015 C2.43484,10.576155 2.61116,10.90197 2.8826,11.10932 C2.451515,11.696135 1.961705,12.215235 1.81453,12.240755 L1.81453,12.675755 C2.16514,12.675755 2.70512,12.06342 3.09111,11.557805 C3.5815,12.69881 2.524595,13.514145 2.47573,13.55112 L2.60623,13.724975 L2.73644,13.899265 C3.254235,13.512695 4.00896,12.51466 3.468255,11.33726 C3.501315,11.34016 3.53452,11.342335 3.568305,11.342335 C3.924135,11.342335 4.241975,11.177035 4.44976,10.91966 C4.41554,11.16906 4.355075,11.415995 4.26184,11.654955 L3.797115,12.84439 C3.678795,13.14744 3.7178,13.488625 3.901225,13.75731 C3.949365,13.827925 4.006495,13.890565 4.06957,13.945375 L0.344955,21.591805 C-0.191835,22.69366 -0.08149,23.99692 0.632925,24.992925 L2.77153,27.97514 C3.23147,28.616475 3.97706,28.999275 4.766295,28.999275 L15.647675,28.999275 C16.436765,28.999275 17.1825,28.616475 17.64244,27.97514 L19.781045,24.992925 C20.49546,23.99692 20.60566,22.69366 20.069015,21.591805 L20.069015,21.591805 Z M15.29692,11.918855 L15.7615,13.108145 C15.806595,13.22313 15.75744,13.31448 15.73424,13.348555 C15.72351,13.364215 15.702195,13.3893 15.671455,13.41192 L4.56257,13.41192 C4.53183,13.3893 4.510515,13.36407 4.49993,13.34841 C4.476585,13.31448 4.427575,13.22313 4.472525,13.108145 L4.937105,11.918855 C5.12488,11.43789 5.214345,10.931695 5.207095,10.426515 L15.027075,10.426515 C15.01968,10.931695 15.109145,11.43789 15.29692,11.918855 L15.29692,11.918855 Z M5.176645,9.991515 C5.13619,9.67092 5.056875,9.353805 4.937105,9.04713 L4.472525,7.857695 C4.427575,7.742855 4.476585,7.651505 4.49993,7.617575 C4.522985,7.5835 4.590265,7.50462 4.713805,7.50462 L15.520365,7.50462 C15.643905,7.50462 15.71104,7.5835 15.73424,7.61743 C15.75744,7.651505 15.806595,7.74271 15.7615,7.857695 L15.29692,9.04713 C15.17715,9.353805 15.097835,9.67092 15.057525,9.991515 L5.176645,9.991515 L5.176645,9.991515 Z M2.29767,0.67048 L18.1163,0.67048 C18.371065,0.67048 18.53738,0.93786 18.42457,1.16638 L15.650285,6.788755 C15.60751,6.782955 15.564155,6.77962 15.520365,6.77962 L4.75919,6.77962 L1.9894,1.16638 C1.87659,0.93786 2.042905,0.67048 2.29767,0.67048 L2.29767,0.67048 Z M3.568305,10.907335 C3.183185,10.907335 2.86984,10.59399 2.86984,10.209015 C2.86984,9.823895 3.183185,9.51055 3.568305,9.51055 C3.95328,9.51055 4.266625,9.823895 4.266625,10.209015 C4.266625,10.59399 3.95328,10.907335 3.568305,10.907335 L3.568305,10.907335 Z M19.309795,24.65493 L17.171045,27.637145 C16.818985,28.128115 16.25189,28.419275 15.647675,28.419275 L4.766295,28.419275 C4.16208,28.419275 3.594985,28.128115 3.242925,27.637145 L1.104175,24.65493 C0.514895,23.83336 0.42369,22.754705 0.866375,21.845845 L4.600705,14.179405 C4.63797,14.183755 4.67567,14.186365 4.713805,14.186365 L15.520365,14.186365 C15.61534,14.186365 15.70785,14.17114 15.79659,14.145185 L19.547595,21.845845 C19.99028,22.754705 19.899075,23.83336 19.309795,24.65493 L19.309795,24.65493 Z" id="Fill-1" sketch:type="MSShapeGroup"></path>
                <path d="M18.429355,21.20567 L1.984615,21.20567 L1.51815,22.16325 C1.19161,22.833585 1.258745,23.626445 1.69331,24.2324 L3.83206,27.214615 C4.047385,27.51491 4.39669,27.694275 4.766295,27.694275 L15.647675,27.694275 C16.01728,27.694275 16.366585,27.51491 16.58191,27.214615 L18.72066,24.2324 C19.155225,23.626445 19.22236,22.833585 18.89582,22.16325 L18.429355,21.20567" id="Fill-2" sketch:type="MSShapeGroup"></path>
                <path d="M6.21615,5.563215 L4.636375,2.116565 L4.24096,2.297815 L5.82059,5.744465 L6.21615,5.563215" id="Fill-3" sketch:type="MSShapeGroup"></path>
            </g>
        </g>
    </g>
</svg>