<?xml version="1.0" encoding="UTF-8" standalone="no"?>
<svg width="29px" height="19px" viewBox="0 0 29 19" version="1.1" xmlns="http://www.w3.org/2000/svg" xmlns:xlink="http://www.w3.org/1999/xlink" xmlns:sketch="http://www.bohemiancoding.com/sketch/ns">
    <!-- Generator: Sketch Beta 3.3.3 (12072) - http://www.bohemiancoding.com/sketch -->
    <title>Coffee</title>
    <desc>Created with Sketch Beta.</desc>
    <defs></defs>
    <g id="Page-1" stroke="none" stroke-width="1" fill="none" fill-rule="evenodd" sketch:type="MSPage">
        <g id="A" sketch:type="MSArtboardGroup" transform="translate(-86.000000, -1053.000000)" stroke="#808080">
            <path d="M109.38554,1055.84211 L109.38554,1055.84211 C109.38554,1054.8248 108.56578,1054 107.554696,1054 L88.3308432,1054 C87.31976,1054 86.5,1054.8248 86.5,1055.84211 L86.5,1062.28947 C86.5,1067.37599 90.5983424,1071.5 95.6542158,1071.5 L100.231324,1071.5 C103.949309,1071.5 107.142757,1069.26553 108.576307,1066.06257 C108.840406,1066.10493 109.10954,1066.13303 109.38554,1066.13303 C112.205496,1066.13303 114.5,1063.82487 114.5,1060.98757 C114.5,1058.15026 112.205496,1055.84211 109.38554,1055.84211 L109.38554,1055.84211 Z M108.49664,1063.625 C108.455688,1063.625 108.415547,1063.62004 108.375,1063.61756 C108.449201,1063.07878 108.49664,1062.52909 108.49664,1061.96501 L108.49664,1057.5 C109.876854,1057.5 111,1058.87373 111,1060.5625 C111,1062.25127 109.876854,1063.625 108.49664,1063.625 L108.49664,1063.625 Z" id="Coffee" sketch:type="MSShapeGroup"></path>
        </g>
    </g>
</svg>