<?xml version="1.0" encoding="UTF-8"?>
<svg width="30px" height="27px" viewBox="0 0 30 27" version="1.1" xmlns="http://www.w3.org/2000/svg" xmlns:xlink="http://www.w3.org/1999/xlink">
    <!-- Generator: Sketch 42 (36781) - http://www.bohemiancoding.com/sketch -->
    <title>Cup</title>
    <desc>Created with Sketch.</desc>
    <defs>
        <path d="M0.221676588,2.99263394 C0.0992479891,1.33984785 1.34312337,0 3.00793008,0 L22.9920699,0 C24.6533038,0 25.9008197,1.3389342 25.7783234,2.99263394 L24.5176507,20.0117159 C24.2317601,23.8712386 20.8713003,27 17.0088344,27 L8.9911656,27 C5.13005145,27 1.76862076,23.8763803 1.48234932,20.0117159 L0.221676588,2.99263394 Z" id="path-1"></path>
        <mask id="mask-2" maskContentUnits="userSpaceOnUse" maskUnits="objectBoundingBox" x="0" y="0" width="25.5732636" height="27" fill="white">
            <use xlink:href="#path-1"></use>
        </mask>
        <path d="M25,5 L27.0048815,5 C28.6590398,5 30,6.34162278 30,7.99715203 L30,14.002848 C30,15.6581293 28.6534829,17 27,17 L24,17" id="path-3"></path>
        <mask id="mask-4" maskContentUnits="userSpaceOnUse" maskUnits="objectBoundingBox" x="0" y="0" width="6" height="12" fill="white">
            <use xlink:href="#path-3"></use>
        </mask>
    </defs>
    <g id="Page-1" stroke="none" stroke-width="1" fill="none" fill-rule="evenodd">
        <g id="iPhone-7" transform="translate(-245.000000, -252.000000)" stroke="#979797" stroke-width="2">
            <g id="Cup" transform="translate(245.000000, 252.000000)">
                <use id="Rectangle-3" mask="url(#mask-2)" xlink:href="#path-1"></use>
                <use id="Rectangle-4" mask="url(#mask-4)" xlink:href="#path-3"></use>
            </g>
        </g>
    </g>
</svg>